<?xml version="1.0" encoding="UTF-8" standalone="no"?>
<!-- Created with Inkscape (http://www.inkscape.org/) -->

<svg
   width="210mm"
   height="297mm"
   viewBox="0 0 210 297"
   version="1.1"
   id="svg5"
   sodipodi:docname="crime.svg"
   inkscape:version="1.1 (c68e22c387, 2021-05-23)"
   xmlns:inkscape="http://www.inkscape.org/namespaces/inkscape"
   xmlns:sodipodi="http://sodipodi.sourceforge.net/DTD/sodipodi-0.dtd"
   xmlns="http://www.w3.org/2000/svg"
   xmlns:svg="http://www.w3.org/2000/svg">
  <sodipodi:namedview
     id="namedview7"
     pagecolor="#ffffff"
     bordercolor="#666666"
     borderopacity="1.0"
     inkscape:pageshadow="2"
     inkscape:pageopacity="0.0"
     inkscape:pagecheckerboard="0"
     inkscape:document-units="mm"
     showgrid="false"
     inkscape:zoom="0.48517716"
     inkscape:cx="396.76229"
     inkscape:cy="619.36139"
     inkscape:window-width="1920"
     inkscape:window-height="1017"
     inkscape:window-x="1272"
     inkscape:window-y="-8"
     inkscape:window-maximized="1"
     inkscape:current-layer="layer1" />
  <defs
     id="defs2" />
  <g
     inkscape:label="Layer 1"
     inkscape:groupmode="layer"
     id="layer1">
    <path
       style="opacity:1;fill:#0000ff;stroke-width:2.0611"
       d=""
       id="path9011"
       transform="scale(0.26458333)" />
    <path
       style="fill:#0000ff;stroke-width:0.601813"
       d="M 97.046026,289.70064 C 92.117416,283.11807 79.009406,267.8426 59.074984,245.45096 24.068809,206.12977 18.220212,198.5907 9.1713551,181.12334 1.4514088,166.22124 0.57511262,162.44685 0.57511262,144.09762 0.57511262,102.79701 6.2628936,72.025153 18.302056,48.19186 28.972562,27.068019 43.546257,13.96413 64.895833,6.2972226 77.077275,1.9227097 91.903659,0.37009148 113.24303,1.2343077 c 29.43999,1.1922802 53.34061,12.1544103 68.8514,31.5790293 5.09698,6.383087 7.02205,9.442412 10.97944,17.448701 10.72465,21.697257 15.92038,48.627259 16.72602,86.692792 0.49057,23.17863 -0.23109,27.51983 -6.74115,40.55155 -8.7418,17.49918 -18.7756,29.5033 -58.27552,69.71902 -25.02765,25.48118 -38.2176,39.54693 -42.86899,45.71542 l -1.22541,1.6251 z m 23.417644,-95.46202 c 15.02904,-2.9818 28.06326,-10.10706 39.7684,-21.73971 11.04667,-10.97827 17.34561,-22.01572 20.70475,-36.28027 0.55306,-2.34858 1.09031,-8.36466 1.2848,-14.38732 0.39411,-12.20385 -0.48311,-18.74082 -3.79961,-28.314695 -4.32015,-12.47109 -9.95894,-20.75357 -21.19305,-31.12921 -9.7118,-8.969664 -18.51769,-13.863389 -32.04558,-17.808783 -5.06583,-1.477442 -6.55986,-1.628075 -18.49784,-1.865016 C 92.518103,42.432422 88.054666,42.951067 78.952791,45.936114 52.612992,54.574513 31.637863,78.49399 27.19381,104.96068 c -1.170601,6.97157 -1.167021,21.74855 0.0069,28.25084 1.722322,9.54032 6.418745,20.46331 12.69596,29.52838 10.953564,15.81833 31.270106,28.81257 49.706137,31.79151 5.733578,0.92644 25.668943,0.73731 30.860913,-0.29279 z"
       id="path8972" />
    <ellipse
       style="fill:#ffffff;stroke-width:0.280171"
       id="path12666"
       cx="106.34002"
       cy="116.97401"
       rx="81.254684"
       ry="80.436684" />
  </g>
</svg>
